<?xml version="1.0" encoding="utf-8"?>
<!-- Generator: Adobe Illustrator 19.2.1, SVG Export Plug-In . SVG Version: 6.00 Build 0)  -->
<svg version="1.1" id="layer" xmlns="http://www.w3.org/2000/svg" xmlns:xlink="http://www.w3.org/1999/xlink" x="0px" y="0px"
	 viewBox="0 0 652 652" style="enable-background:new 0 0 652 652;" xml:space="preserve">
<style type="text/css">
	.st0{fill:#FFCD00;}
</style>
<rect x="21" y="171" width="600" height="300"/>
<path class="st0" d="M126,277.3h-12.2v87.3H126v31.7H59.3v-31.7h12.2v-87.3H59.3V246H126V277.3z M215.7,396.3h-48.3
	c-17.5,0-29-11.5-29-30.3v-89.7c0-18.7,11.7-30.3,29-30.3h48.3c17.5,0,29,11.7,29,30.3V366C244.7,384.7,233,396.3,215.7,396.3z
	 M202,364.7v-87.3h-21v87.3H202z M263.7,277.3H253V246h63.3v31.5h-12l10.8,72.3L337.7,246h32l24,103.8l8.7-72.3h-11V246h62.5v31.5
	h-10.3l-18.8,119h-51L354,307.8l-20.2,88.5h-49L263.7,277.3z M442.8,364.7h11.5L477.2,246h68.3L568,364.7h10.7v31.7h-51l-4.8-36.7
	h-25.3l-4.5,36.7h-50L442.8,364.7L442.8,364.7z M520.2,332.2l-9.7-60.7l-10,60.7H520.2z"/>
</svg>
